<?xml version="1.0" encoding="UTF-8"?>
<!DOCTYPE svg PUBLIC "-//W3C//DTD SVG 1.1//EN" "http://www.w3.org/Graphics/SVG/1.1/DTD/svg11.dtd">
<!-- Creator: CorelDRAW -->
<svg xmlns="http://www.w3.org/2000/svg" xml:space="preserve" width="2048px" height="2048px" style="shape-rendering:geometricPrecision; text-rendering:geometricPrecision; image-rendering:optimizeQuality; fill-rule:evenodd; clip-rule:evenodd"
viewBox="0 0 2048 2048"
 xmlns:xlink="http://www.w3.org/1999/xlink">
 <defs>
  <style type="text/css">
   <![CDATA[
    .fil1 {fill:none}
    .fil0 {fill:#212121;fill-rule:nonzero}
   ]]>
  </style>
 </defs>
 <g id="Layer_x0020_1">
  <metadata id="CorelCorpID_0Corel-Layer"/>
  <path class="fil0" d="M953.434 457.583c4.81418,-12.3225 -1.27087,-26.2169 -13.5933,-31.0311 -12.3225,-4.81418 -26.2169,1.27087 -31.0311,13.5933 -18.1713,46.5378 -45.652,88.1611 -80.1969,122.632 -34.6217,34.5437 -76.3111,61.9583 -122.819,79.9997 -12.3225,4.76339 -18.45,18.6154 -13.6866,30.9378 4.76339,12.3225 18.6154,18.45 30.9378,13.6866 52.8237,-20.491 100.111,-51.567 139.319,-90.6863 39.2811,-39.1961 70.4882,-86.4213 91.0701,-139.132z"/>
  <path class="fil0" d="M953.714 440.99c-4.34882,-12.4772 -17.9917,-19.0666 -30.4689,-14.7177 -12.4772,4.34882 -19.0666,17.9917 -14.7177,30.4689 7.93465,22.7847 13.474,46.1445 16.6417,69.7146 3.1878,23.7166 3.95433,47.7367 2.32677,71.6847 -0.879922,13.2024 9.11103,24.6201 22.3134,25.5 13.2024,0.879922 24.6201,-9.11103 25.5,-22.3134 1.82953,-26.9303 0.940158,-54.1524 -2.70236,-81.2469 -3.58937,-26.7 -9.87757,-53.2016 -18.8929,-79.0902z"/>
  <path class="fil0" d="M1352.24 687.592c12.4264,4.55552 26.1945,-1.82362 30.75,-14.25 4.55552,-12.4264 -1.82362,-26.1945 -14.25,-30.75 -59.6445,-21.9083 -113.55,-53.0268 -158.778,-90.8965 -44.9646,-37.6477 -81.2682,-81.8221 -105.992,-130.08 -6.00591,-11.7532 -20.4036,-16.4114 -32.1567,-10.4055 -11.7532,6.00591 -16.4114,20.4036 -10.4055,32.1567 27.7807,54.2245 68.1225,103.484 117.803,145.08 49.4138,41.3752 108.16,75.3178 173.029,99.1454z"/>
  <path class="fil0" d="M937.059 580.515c-10.6134,7.92048 -12.7961,22.9488 -4.87559,33.5622 7.92048,10.6134 22.9488,12.7961 33.5622,4.87559 26.9799,-20.1414 54.0945,-47.5311 77.9658,-77.6257 24.1323,-30.424 45.1052,-63.8245 59.3989,-95.4662 5.43544,-12.0626 0.0625985,-26.2512 -12,-31.6866 -12.0626,-5.43544 -26.2512,-0.0625985 -31.6866,12 -12.6768,28.0642 -31.4705,57.9296 -53.2122,85.3394 -21.3579,26.9244 -45.4193,51.2835 -69.1524,69.0012z"/>
  <path class="fil0" d="M1024 240.212c101.511,0 193.415,41.1485 259.938,107.673 66.5245,66.5233 107.673,158.427 107.673,259.938 0,101.51 -41.1485,193.414 -107.673,259.938 -66.5245,66.5233 -158.428,107.672 -259.938,107.672 -101.51,0 -193.414,-41.1485 -259.938,-107.672 -66.5245,-66.5245 -107.673,-158.428 -107.673,-259.938 0,-101.511 41.1485,-193.415 107.673,-259.938 66.5233,-66.5245 158.427,-107.673 259.938,-107.673zm226.001 141.611c-57.8351,-57.8363 -137.74,-93.6107 -226.001,-93.6107 -88.2603,0 -168.165,35.7744 -226.001,93.6107 -57.8363,57.8351 -93.6107,137.74 -93.6107,226.001 0,88.2591 35.7744,168.164 93.6107,226.001 57.8363,57.8351 137.741,93.6095 226.001,93.6095 88.2591,0 168.164,-35.7744 226.001,-93.6095 57.8363,-57.8363 93.6107,-137.741 93.6107,-226.001 0,-88.2603 -35.7744,-168.165 -93.6107,-226.001z"/>
  <path class="fil0" d="M648.728 440.327c-11.7012,-6.16063 -26.1839,-1.67008 -32.3445,10.0311 -6.16063,11.7012 -1.67008,26.1839 10.0311,32.3445l47.6008 25.0299c11.7012,6.16063 26.1839,1.67008 32.3445,-10.0311 6.16063,-11.7012 1.67008,-26.1839 -10.0311,-32.3445l-47.6008 -25.0299z"/>
  <path class="fil0" d="M474.121 317.531c39.1205,-12.1559 80.817,-1.29567 117.408,26.3091 34.2508,25.8402 64.2804,66.8386 82.7694,117.04l0.0330709 -0.011811c4.57914,12.437 -1.79173,26.2347 -14.2288,30.8138 -7.85552,2.89252 -16.2543,1.41496 -22.5295,-3.19961 -17.5075,-10.8177 -36.7193,-17.9977 -56.5146,-20.8725 -19.4551,-2.8252 -39.4949,-1.51536 -59.0374,4.5567 -19.5591,6.07796 -36.7618,16.3087 -51.0863,29.5677 -15.0284,13.911 -27.0189,31.291 -35.374,50.85l-22.0311 -9.3756 22.0701 9.42757c-5.2063,12.1878 -19.3099,17.8488 -31.4977,12.6425 -7.42796,-3.17362 -12.4323,-9.65316 -14.0291,-16.9878 -12.9673,-51.4241 -11.3823,-101.874 2.1378,-142.423 14.5181,-43.5426 42.7489,-76.167 81.9107,-88.3371zm88.532 64.5603c-24.4441,-18.4417 -50.9894,-26.1047 -74.4697,-18.8091 -23.439,7.28386 -40.9323,28.5992 -50.5973,57.5859 -5.47678,16.4244 -8.42009,35.1449 -8.55591,55.2119 3.04252,-3.24331 6.19843,-6.38268 9.46654,-9.40749 19.5331,-18.0803 42.9248,-32.0114 69.4619,-40.2567 26.5512,-8.25001 53.6493,-10.0476 79.8508,-6.24331 4.39725,0.638977 8.76969,1.43504 13.1102,2.38465 -11.4591,-16.3583 -24.4666,-30.0544 -38.2666,-40.4658z"/>
  <path class="fil0" d="M1559.82 363.283c-23.4803,-7.29567 -50.0256,0.367323 -74.4686,18.8091 -13.8,10.4114 -26.8075,24.1075 -38.2666,40.4658 4.33937,-0.949607 8.71182,-1.74567 13.1091,-2.38465 26.2016,-3.80433 53.2996,-2.00669 79.8508,6.24331 26.537,8.24528 49.9288,22.1764 69.4619,40.2567 3.26811,3.02481 6.42402,6.16418 9.46654,9.40749 -0.135827,-20.0669 -3.07914,-38.7874 -8.55591,-55.2119 -9.66497,-28.9866 -27.1583,-50.302 -50.5973,-57.5859zm-103.344 -19.4421c36.5894,-27.6047 78.2871,-38.465 117.406,-26.3091 39.1618,12.1701 67.3926,44.7945 81.9107,88.3371 13.5201,40.5496 15.1051,90.9993 2.1378,142.423 -1.59685,7.33465 -6.60119,13.8142 -14.0291,16.9878 -12.1878,5.2063 -26.2914,-0.454725 -31.4977,-12.6425l22.0701 -9.42757 -22.0311 9.3756c-8.35512,-19.5591 -20.3457,-36.939 -35.374,-50.85 -14.3244,-13.2591 -31.5272,-23.4898 -51.0863,-29.5677 -19.5425,-6.07205 -39.5823,-7.3819 -59.0374,-4.5567 -19.7953,2.87481 -39.0071,10.0547 -56.5146,20.8725 -6.2752,4.61457 -14.674,6.09213 -22.5295,3.19961 -12.437,-4.57914 -18.8079,-18.3768 -14.2288,-30.8138l0.0330709 0.011811c18.489,-50.2016 48.5197,-91.1989 82.7705,-117.04z"/>
  <path class="fil0" d="M1421.58 482.703c11.7012,-6.16063 16.1917,-20.6433 10.0311,-32.3445 -6.16063,-11.7012 -20.6433,-16.1917 -32.3445,-10.0311l-47.6008 25.0299c-11.7012,6.16063 -16.1917,20.6433 -10.0311,32.3445 6.16063,11.7012 20.6433,16.1917 32.3445,10.0311l47.6008 -25.0299z"/>
  <path class="fil0" d="M705.869 1247.9c14.2913,-54.3898 54.867,-100.296 109.74,-133.259 59.1544,-35.5347 134.549,-55.8804 212.069,-55.8804 77.9694,0 153.326,20.739 212.46,56.7367 33.5044,20.3953 61.6926,45.6142 81.9532,74.5831 12.0732,-11.7213 24.2977,-23.2831 36.6721,-34.6736 -23.8713,-32.2347 -55.5437,-60.1134 -92.5536,-82.643 -66.8977,-40.7233 -151.515,-64.1847 -238.532,-64.1847 -86.38,0 -170.916,22.9866 -237.748,63.1335 -65.7461,39.4949 -114.68,95.706 -132.481,163.447l-54.8422 208.719c-0.869292,2.54528 -1.34173,5.27363 -1.34173,8.113 0,13.8567 11.2347,25.0902 25.0914,25.0902l450.214 0c11.5784,-17.1461 23.8217,-33.7866 36.4028,-50.1815l-454.139 0 47.0339 -179z"/>
  <path class="fil0" d="M895.658 1059.02c-5.90197,-11.8051 -20.2583,-16.5898 -32.0634,-10.6878 -11.8051,5.90197 -16.5898,20.2583 -10.6878,32.0634 15.026,29.9114 40.2945,54.4654 71.5926,71.3835 30.5209,16.4988 66.9048,25.8567 105.046,25.8567 36.3307,0 71.2312,-8.56064 101.036,-23.8063 30.4736,-15.5882 55.5874,-38.1945 71.589,-65.8985 6.62717,-11.4425 2.72362,-26.0918 -8.7189,-32.7189 -11.4425,-6.62717 -26.0918,-2.72362 -32.7189,8.7189 -11.361,19.6689 -29.5784,35.9174 -51.9024,47.3363 -22.9961,11.7626 -50.3681,18.3685 -79.2851,18.3685 -30.1866,0 -58.7008,-7.25434 -82.3595,-20.0433 -22.8792,-12.3673 -41.0835,-29.7815 -51.528,-50.5725z"/>
  <path class="fil0" d="M1325.81 1322.07c-20.354,10.689 -43.7126,21.013 -73.7623,34.2933 -14.8205,6.54922 -31.252,13.8106 -48.6248,21.6709 -4.30512,1.94646 -6.4689,4.78465 -7.01693,7.71851 -0.372048,1.99252 -0.159449,4.20945 0.525591,6.40749 0.745276,2.39173 2.02677,4.64292 3.71811,6.50315 2.70591,2.97638 6.5067,4.83544 10.6937,4.23071 0.0625985,-0.00826772 12.248,-4.59213 26.4083,-9.92481 19.265,-7.2567 41.1071,-15.652 42.6555,-16.4244l14.2488 28.6252c-5.62559,2.80866 -7.71851,7.41733 -7.36418,11.798 0.158268,1.96063 0.742914,3.95315 1.67599,5.82284 0.959056,1.92166 2.19213,3.5941 3.61536,4.8567 3.27047,2.90079 8.22166,3.97205 13.9028,1.1374l14.2488 28.6252c-5.62559,2.80866 -7.71851,7.41615 -7.36418,11.7957 0.158268,1.96063 0.742914,3.95315 1.67599,5.82284 0.959056,1.92166 2.19095,3.59174 3.61536,4.85552 3.26929,2.89961 8.22166,3.97323 13.9016,1.1374 18.4819,-9.2256 35.8866,-16.6477 51.3615,-23.2453 28.5366,-12.1677 49.8012,-21.2362 59.1378,-34.2355 0.790158,-1.09843 1.45276,-2.05394 1.98543,-2.86299 12.2138,-18.5103 13.0311,-36.0437 7.26024,-51.3981 -6.27284,-16.6925 -20.0103,-31.5083 -35.7992,-42.8492 -1.65354,-1.18701 -3.18189,-2.2441 -4.57559,-3.16299l8.74961 -13.3122 -8.81221 13.3547c-0.282284,-0.186614 -0.5563,-0.381496 -0.823229,-0.582284 -38.7969,-25.4575 -47.6516,-20.7354 -76.2319,-5.46851 -4.4126,2.35512 -8.58426,4.58977 -9.00591,4.81063zm-86.6363 5.04449c29.7,-13.1256 52.7882,-23.3303 71.7615,-33.2941 6.73938,-3.53859 7.66772,-4.03819 8.88072,-4.68544 41.3989,-22.115 54.189,-28.9335 108.736,6.89056 0.318898,0.179528 0.634252,0.370866 0.943702,0.575197l-0.0200788 0.0295276 0.0200788 0.0129921 -0.0188977 0.0283465c2.04685,1.35118 3.93662,2.64803 5.6563,3.88347 20.4024,14.6551 38.3811,34.4055 47.0504,57.476 9.17363,24.4099 8.1626,51.8469 -10.5106,80.1461 -0.967324,1.46929 -1.8815,2.80158 -2.73425,3.9874 -14.563,20.276 -39.3071,30.828 -72.5127,44.9859 -14.674,6.2563 -31.1799,13.2945 -49.6134,22.4965 -19.1929,9.58111 -36.9284,5.06339 -49.2756,-5.8878 -4.64646,-4.12205 -8.42481,-9.09213 -11.1154,-14.4815 -2.71654,-5.44134 -4.4315,-11.4425 -4.92638,-17.5725 -0.351969,-4.35 -0.115748,-8.7319 0.780709,-13.0028 -3.93189,-1.85197 -7.5626,-4.29213 -10.8177,-7.17993 -4.64764,-4.12323 -8.42481,-9.09331 -11.1154,-14.4827 -2.57953,-5.16851 -4.25433,-10.8425 -4.84252,-16.6524l-6.49961 2.45669c-15.9579,6.00945 -30.6059,11.3079 -33.1571,11.6752 -15.7547,2.27599 -29.4626,-4.06418 -38.8181,-14.3551 -4.82717,-5.30906 -8.47678,-11.713 -10.5945,-18.5032 -2.17795,-6.98032 -2.76496,-14.4827 -1.39961,-21.7831 2.35984,-12.6165 10.2201,-24.1618 25.2673,-30.9673 18.7583,-8.48741 34.5922,-15.4843 48.8752,-21.7961z"/>
  <path class="fil0" d="M1260.76 1309.95c51.8233,-57.5729 105.012,-110.127 157.634,-156.554 54.6792,-48.2445 108.481,-89.6434 159.272,-122.987l-0.00944883 -0.0141732c7.38662,-4.84843 17.3067,-2.79213 22.1551,4.59449 3.50788,5.34331 3.4004,12.013 0.276378,17.1295 -27.828,53.8524 -63.1607,111.34 -105.034,170.251 -21.4169,30.1311 -44.5252,60.6154 -69.1961,91.154 -1.70906,-1.22835 -3.43583,-2.42008 -5.17914,-3.57048 -8.45906,-5.58189 -15.7453,-9.97914 -22.2166,-13.3417 25.2709,-31.1315 48.8481,-62.152 70.591,-92.7426 26.0055,-36.5859 49.4197,-72.5882 70.0052,-107.458 -32.576,24.1547 -65.9304,51.2067 -99.5387,80.8595 -47.7945,42.1689 -96.3213,89.7887 -144.089,142.019 -19.3559,9.12284 -42.1264,18.9933 -70.2473,31.487 17.2169,-20.2028 30.3933,-35.0681 35.5772,-40.8272zm48.9579 134.8l-1.88268 1.95354c-2.24055,1.74685 -4.08662,3.69213 -5.57717,5.76733 -34.924,36.0154 -80.5335,81.1442 -120.091,114.357 -43.5662,36.5788 -82.5768,58.7528 -101.663,43.1882 -0.173622,-0.141732 -0.518504,-0.445276 -0.968505,-0.84567l-0.0437008 0.0484252c-0.424016,-0.379134 -0.823229,-0.775985 -1.19764,-1.18819 -16.7634,-17.1602 -3.73111,-53.1957 22.8166,-95.302 21.9591,-34.8272 53.087,-75.5894 82.2166,-111.592 4.74331,10.0949 14.576,17.9788 26.5949,17.8453 -28.9866,35.7319 -60.1607,76.4079 -81.8115,110.747 -18.4819,29.3114 -30.5764,51.6083 -27.437,55.5059l0.144095 0.125197 -0.0129921 0.0141732 0.0212599 0.022441c4.37363,2.31969 29.3209,-16.6051 60.8422,-43.0701 37.5886,-31.5603 80.9304,-74.3068 114.836,-109.181 6.66615,10.2591 19.0181,16.6949 33.2138,11.6043z"/>
  <path class="fil0" d="M1002.73 1757.6c-12.6437,7.7067 -25.0488,15.2669 -37.037,23.1154 -4.73622,3.45 -11.2004,4.16221 -16.7634,1.29567 -7.85434,-4.04764 -10.9394,-13.6973 -6.89174,-21.5516l0.034252 0.0177165c10.2295,-19.8484 19.6028,-45.7382 28.9701,-71.6091 15.5587,-42.9744 31.1032,-85.9111 52.8426,-107.815 21.9496,-22.1162 47.087,-25.2933 77.9174,5.30552 37.8331,37.552 26.9398,72.1926 -5.22638,104.601 -23.7248,23.902 -59.6245,45.7831 -93.8457,66.6402zm-11.8524 -30.1607c31.161,-19.011 63.1158,-38.8748 83.0729,-58.9796 18.9815,-19.1244 25.95,-39.0307 5.35158,-59.4756 -14.1508,-14.0445 -24.5292,-13.7563 -32.7922,-5.43071 -16.7539,16.8803 -31.1055,56.5182 -45.4678,96.1902 -3.36851,9.30237 -6.73701,18.6083 -10.1646,27.6957z"/>
 </g>
 <rect class="fil1" width="2048" height="2048"/>
</svg>
